<svg width="1000" height="474" viewBox="0 0 1000 474" fill="none" xmlns="http://www.w3.org/2000/svg">
<g clip-path="url(#clip0_2174_42)">
<path d="M499.564 434.065C430.338 433.963 365.508 422.005 308.191 403.382C251.144 384.847 202.425 360.233 163.195 336.179C122.38 311.153 92.016 287.015 71.3586 269.013C60.6191 259.654 52.8757 252.268 47.4269 246.868C44.6724 244.139 42.7185 242.127 41.3155 240.655C40.6173 239.923 40.1254 239.397 39.7687 239.013C39.5927 238.823 39.4681 238.688 39.3781 238.589C39.334 238.541 39.3036 238.505 39.2804 238.48C39.2498 238.449 39.4069 238.62 39.3781 238.589C39.4681 238.688 39.5927 238.823 39.7687 239.013C40.1269 239.398 40.62 239.919 41.3195 240.651C42.7241 242.122 44.6768 244.133 47.4328 246.862C52.8838 252.26 60.629 259.642 71.3703 268.999C92.0305 286.997 122.395 311.13 163.21 336.151C202.441 360.201 251.158 384.812 308.202 403.345C365.517 421.965 430.342 433.92 499.564 434.022H499.784C499.846 434.023 499.908 434.02 499.97 434.02V434.064C499.908 434.064 499.846 434.066 499.784 434.066L499.564 434.065Z" fill="#242323"/>
<path d="M39.7687 239.013C40.1254 239.397 40.6173 239.923 41.3155 240.655C42.7185 242.127 44.6724 244.139 47.4269 246.868C52.8757 252.268 60.6191 259.654 71.3586 269.013C92.016 287.015 122.38 311.153 163.195 336.179C202.425 360.233 251.144 384.847 308.191 403.382C365.508 422.005 430.338 433.963 499.564 434.065L499.784 434.066C499.846 434.066 499.908 434.064 499.97 434.064V434.02C499.908 434.02 499.846 434.023 499.784 434.022H499.564C430.342 433.92 365.517 421.965 308.202 403.345C251.158 384.812 202.441 360.201 163.21 336.151C122.395 311.13 92.0305 286.997 71.3703 268.999C60.629 259.642 52.8838 252.26 47.4328 246.862C44.6768 244.133 42.7241 242.122 41.3195 240.651C40.62 239.919 40.1269 239.398 39.7687 239.013ZM39.7687 239.013C39.5927 238.823 39.4681 238.688 39.3781 238.589M39.3781 238.589C39.334 238.541 39.3036 238.505 39.2804 238.48C39.2498 238.449 39.4069 238.62 39.3781 238.589Z" stroke="#242323" stroke-width="79.3988" stroke-linecap="round" stroke-linejoin="round"/>
<path d="M500.417 434.066C569.643 433.963 634.472 422.005 691.79 403.382C748.837 384.847 797.556 360.233 836.786 336.179C877.601 311.153 907.965 287.015 928.622 269.013C939.362 259.654 947.105 252.268 952.554 246.868C955.308 244.139 957.262 242.127 958.665 240.655C959.363 239.923 959.855 239.397 960.212 239.013C960.388 238.823 960.513 238.688 960.603 238.589C960.647 238.541 940.977 257.921 941 257.896C941.03 257.865 960.574 238.62 960.603 238.589C960.513 238.688 960.388 238.823 960.212 239.013C959.854 239.398 959.36 239.919 958.661 240.651C957.256 242.122 955.303 244.133 952.548 246.862C947.096 252.26 939.351 259.642 928.61 268.999C907.95 286.997 877.585 311.13 836.77 336.151C797.54 360.202 748.822 384.813 691.778 403.345C634.463 421.965 569.638 433.92 500.417 434.023H500.196C500.134 434.023 500.072 434.021 500.01 434.021V434.064C500.072 434.064 500.134 434.066 500.196 434.066L500.417 434.066Z" fill="#242323"/>
<path d="M960.212 239.013C959.855 239.397 959.363 239.923 958.665 240.655C957.262 242.127 955.308 244.139 952.554 246.868C947.105 252.268 939.362 259.654 928.622 269.013C907.965 287.015 877.601 311.153 836.786 336.179C797.556 360.233 748.837 384.847 691.79 403.382C634.472 422.005 569.643 433.963 500.417 434.066L500.196 434.066C500.134 434.066 500.072 434.064 500.01 434.064V434.021C500.072 434.021 500.134 434.023 500.196 434.023H500.417C569.638 433.92 634.463 421.965 691.778 403.345C748.822 384.813 797.54 360.202 836.77 336.151C877.585 311.13 907.95 286.997 928.61 268.999C939.351 259.642 947.096 252.26 952.548 246.862C955.303 244.133 957.256 242.122 958.661 240.651C959.36 239.919 959.854 239.398 960.212 239.013ZM960.212 239.013C960.388 238.823 960.513 238.688 960.603 238.589M960.603 238.589C960.647 238.541 940.977 257.921 941 257.896C941.03 257.865 960.574 238.62 960.603 238.589Z" stroke="#242323" stroke-width="79.3988" stroke-linecap="round" stroke-linejoin="round"/>
</g>
<defs>
<clipPath id="clip0_2174_42">
<rect width="999.97" height="473.765" fill="white"/>
</clipPath>
</defs>
</svg>
