<svg width="1000" height="474" viewBox="0 0 1000 474" fill="none" xmlns="http://www.w3.org/2000/svg">
<g clip-path="url(#clip0_2174_46)">
<path d="M499.564 39.6998C430.338 39.8019 365.508 51.7601 308.191 70.3834C251.144 88.9187 202.425 113.532 163.195 137.587C122.38 162.612 92.016 186.751 71.3586 204.753C60.6191 214.112 52.8757 221.498 47.4269 226.897C44.6724 229.627 42.7185 231.639 41.3155 233.11C40.6173 233.842 40.1254 234.368 39.7687 234.753C39.5927 234.942 39.4681 235.078 39.3781 235.176C39.334 235.225 39.3036 235.26 39.2804 235.286C39.2498 235.316 39.4069 235.145 39.3781 235.176C39.4681 235.078 39.5927 234.942 39.7687 234.753C40.1269 234.368 40.62 233.846 41.3195 233.114C42.7241 231.643 44.6768 229.632 47.4328 226.903C52.8838 221.505 60.629 214.123 71.3703 204.766C92.0305 186.769 122.395 162.636 163.21 137.614C202.441 113.564 251.158 88.9528 308.202 70.4205C365.517 51.8002 430.342 39.845 499.564 39.7428H499.784C499.846 39.7428 499.908 39.7448 499.97 39.7448V39.7017C499.908 39.7018 499.846 39.6997 499.784 39.6997L499.564 39.6998Z" fill="white"/>
<path d="M39.7687 234.753C40.1254 234.368 40.6173 233.842 41.3155 233.11C42.7185 231.639 44.6724 229.627 47.4269 226.897C52.8757 221.498 60.6191 214.112 71.3586 204.753C92.016 186.751 122.38 162.612 163.195 137.587C202.425 113.532 251.144 88.9187 308.191 70.3834C365.508 51.7601 430.338 39.8019 499.564 39.6998L499.784 39.6997C499.846 39.6997 499.908 39.7018 499.97 39.7017V39.7448C499.908 39.7448 499.846 39.7428 499.784 39.7428H499.564C430.342 39.845 365.517 51.8002 308.202 70.4205C251.158 88.9528 202.441 113.564 163.21 137.614C122.395 162.636 92.0305 186.769 71.3703 204.766C60.629 214.123 52.8838 221.505 47.4328 226.903C44.6768 229.632 42.7241 231.643 41.3195 233.114C40.62 233.846 40.1269 234.368 39.7687 234.753ZM39.7687 234.753C39.5927 234.942 39.4681 235.078 39.3781 235.176M39.3781 235.176C39.334 235.225 39.3036 235.26 39.2804 235.286C39.2498 235.316 39.4069 235.145 39.3781 235.176Z" stroke="#242323" stroke-width="79.3988" stroke-linecap="round" stroke-linejoin="round"/>
<path d="M500.417 39.7003C569.643 39.8024 634.472 51.7606 691.79 70.3839C748.837 88.9192 797.556 113.533 836.786 137.587C877.601 162.613 907.965 186.751 928.622 204.753C939.362 214.112 947.105 221.498 952.554 226.898C955.308 229.627 957.262 231.639 958.665 233.11C959.363 233.843 959.855 234.369 960.212 234.753C960.388 234.943 960.513 235.078 960.603 235.177C960.647 235.225 960.677 235.261 960.7 235.286C960.73 235.316 960.574 235.146 960.603 235.177C960.513 235.078 960.388 234.943 960.212 234.753C959.854 234.368 959.36 233.847 958.661 233.114C957.256 231.643 955.304 229.632 952.548 226.903C947.097 221.506 939.351 214.124 928.61 204.767C907.95 186.769 877.585 162.636 836.77 137.614C797.54 113.564 748.822 88.9533 691.778 70.421C634.463 51.8007 569.638 39.8454 500.417 39.7433H500.196C500.134 39.7432 500.072 39.7453 500.01 39.7452V39.7022C500.072 39.7022 500.134 39.7002 500.196 39.7002L500.417 39.7003Z" fill="white"/>
<path d="M960.212 234.753C959.855 234.369 959.363 233.843 958.665 233.11C957.262 231.639 955.308 229.627 952.554 226.898C947.105 221.498 939.362 214.112 928.622 204.753C907.965 186.751 877.601 162.613 836.786 137.587C797.556 113.533 748.837 88.9192 691.79 70.3839C634.472 51.7606 569.643 39.8024 500.417 39.7003L500.196 39.7002C500.134 39.7002 500.072 39.7022 500.01 39.7022V39.7452C500.072 39.7453 500.134 39.7432 500.196 39.7433H500.417C569.638 39.8454 634.463 51.8007 691.778 70.421C748.822 88.9533 797.54 113.564 836.77 137.614C877.585 162.636 907.95 186.769 928.61 204.767C939.351 214.124 947.097 221.506 952.548 226.903C955.304 229.632 957.256 231.643 958.661 233.114C959.36 233.847 959.854 234.368 960.212 234.753ZM960.212 234.753C960.388 234.943 960.513 235.078 960.603 235.177M960.603 235.177C960.647 235.225 960.677 235.261 960.7 235.286C960.73 235.316 960.574 235.146 960.603 235.177Z" stroke="#242323" stroke-width="79.3988" stroke-linecap="round" stroke-linejoin="round"/>
<path d="M499.97 417.627C602.156 417.627 684.994 334.789 684.994 232.603C684.994 130.416 602.156 47.5781 499.97 47.5781C397.784 47.5781 314.945 130.416 314.945 232.603C314.945 334.789 397.784 417.627 499.97 417.627Z" stroke="#242323" stroke-width="90.7087" stroke-linecap="round" stroke-linejoin="round"/>
</g>
<defs>
<clipPath id="clip0_2174_46">
<rect width="999.97" height="473.765" fill="white"/>
</clipPath>
</defs>
</svg>
